<?xml version="1.0" standalone="no"?>
 <!DOCTYPE svg PUBLIC "-//W3C//DTD SVG 1.1//EN" 
 "http://www.w3.org/Graphics/SVG/1.1/DTD/svg11.dtd"> 
<svg xmlns="http://www.w3.org/2000/svg" version="1.1" 
    width="3.11404cm" height="4.1148cm" viewBox="0 0 12260 16200 ">
<title>SVG Picture created as SimpleAttiny84-brd.svg date 2018/07/18 12:41:23 </title>
  <desc>Picture generated by PCBNEW </desc>
<g style="fill:#000000; fill-opacity:1;stroke:#000000; stroke-opacity:1;
stroke-linecap:round; stroke-linejoin:round; "
 transform="translate(0 0) scale(1 1)">
</g>
<g style="fill:#000000; fill-opacity:0.0; 
stroke:#000000; stroke-width:-0.000393701; stroke-opacity:1; 
stroke-linecap:round; stroke-linejoin:round;">
</g>
<g style="fill:#000000; fill-opacity:0.0; 
stroke:#000000; stroke-width:118.11; stroke-opacity:1; 
stroke-linecap:round; stroke-linejoin:round;">
<path d="M9647 13654
L10097 13654
" />
<path d="M9872 13879
L9872 13429
" />
<path d="M7706 10082
L7734 10111
L7706 10139
L7678 10111
L7706 10082
L7706 10139
" />
</g>
<g style="fill:#000000; fill-opacity:0.0; 
stroke:#000000; stroke-width:0; stroke-opacity:1; 
stroke-linecap:round; stroke-linejoin:round;">
</g>
<g style="fill:#000000; fill-opacity:1.0; 
stroke:#000000; stroke-width:0; stroke-opacity:1; 
stroke-linecap:round; stroke-linejoin:round;">
<polyline style="fill-rule:evenodd;"
points="5698,1982
5698,1588
6938,1588
6938,1982
5698,1982
" /> 
<polyline style="fill-rule:evenodd;"
points="7687,1982
7687,1588
8927,1588
8927,1982
7687,1982
" /> 
<polyline style="fill-rule:evenodd;"
points="5698,2982
5698,2588
6938,2588
6938,2982
5698,2982
" /> 
<polyline style="fill-rule:evenodd;"
points="7687,2982
7687,2588
8927,2588
8927,2982
7687,2982
" /> 
<polyline style="fill-rule:evenodd;"
points="5698,3982
5698,3588
6938,3588
6938,3982
5698,3982
" /> 
<polyline style="fill-rule:evenodd;"
points="7687,3982
7687,3588
8927,3588
8927,3982
7687,3982
" /> 
<polyline style="fill-rule:evenodd;"
points="8769,10072
8769,10309
8179,10309
8179,10072
8769,10072
" /> 
<polyline style="fill-rule:evenodd;"
points="8769,9572
8769,9809
8179,9809
8179,9572
8769,9572
" /> 
<polyline style="fill-rule:evenodd;"
points="8769,9072
8769,9309
8179,9309
8179,9072
8769,9072
" /> 
<polyline style="fill-rule:evenodd;"
points="8769,8572
8769,8809
8179,8809
8179,8572
8769,8572
" /> 
<polyline style="fill-rule:evenodd;"
points="8769,8072
8769,8309
8179,8309
8179,8072
8769,8072
" /> 
<polyline style="fill-rule:evenodd;"
points="8769,7572
8769,7809
8179,7809
8179,7572
8769,7572
" /> 
<polyline style="fill-rule:evenodd;"
points="8769,7072
8769,7309
8179,7309
8179,7072
8769,7072
" /> 
<polyline style="fill-rule:evenodd;"
points="6643,7072
6643,7309
6053,7309
6053,7072
6643,7072
" /> 
<polyline style="fill-rule:evenodd;"
points="6643,7572
6643,7809
6053,7809
6053,7572
6643,7572
" /> 
<polyline style="fill-rule:evenodd;"
points="6643,8072
6643,8309
6053,8309
6053,8072
6643,8072
" /> 
<polyline style="fill-rule:evenodd;"
points="6643,8572
6643,8809
6053,8809
6053,8572
6643,8572
" /> 
<polyline style="fill-rule:evenodd;"
points="6643,9072
6643,9309
6053,9309
6053,9072
6643,9072
" /> 
<polyline style="fill-rule:evenodd;"
points="6643,9572
6643,9809
6053,9809
6053,9572
6643,9572
" /> 
<polyline style="fill-rule:evenodd;"
points="6643,10072
6643,10309
6053,10309
6053,10072
6643,10072
" /> 
<polyline style="fill-rule:evenodd;"
points="6171,11998
6171,11368
6958,11368
6958,11998
6171,11998
" /> 
<polyline style="fill-rule:evenodd;"
points="7746,11998
7746,11368
8533,11368
8533,11998
7746,11998
" /> 
<polyline style="fill-rule:evenodd;"
points="8257,14045
8257,13375
8927,13375
8927,14045
8257,14045
" /> 
<polyline style="fill-rule:evenodd;"
points="6017,14017
6017,13348
6687,13348
6687,14017
6017,14017
" /> 
<polyline style="fill-rule:evenodd;"
points="2017,6017
2017,5348
2687,5348
2687,6017
2017,6017
" /> 
</g>
<g style="fill:#000000; fill-opacity:1.0; 
stroke:#000000; stroke-width:669.291; stroke-opacity:1; 
stroke-linecap:round; stroke-linejoin:round;">
</g>
<g style="fill:#000000; fill-opacity:0.0; 
stroke:#000000; stroke-width:669.291; stroke-opacity:1; 
stroke-linecap:round; stroke-linejoin:round;">
<path d="M2352 6683
L2352 6683
" />
<path d="M2352 7683
L2352 7683
" />
<path d="M2352 8683
L2352 8683
" />
<path d="M2352 9683
L2352 9683
" />
<path d="M2352 10683
L2352 10683
" />
</g>
<g style="fill:#000000; fill-opacity:0.0; 
stroke:#000000; stroke-width:0; stroke-opacity:1; 
stroke-linecap:round; stroke-linejoin:round;">
</g>
<g style="fill:#000000; fill-opacity:1.0; 
stroke:#000000; stroke-width:0; stroke-opacity:1; 
stroke-linecap:round; stroke-linejoin:round;">
<polyline style="fill-rule:evenodd;"
points="3017,6017
3017,5348
3687,5348
3687,6017
3017,6017
" /> 
</g>
<g style="fill:#000000; fill-opacity:1.0; 
stroke:#000000; stroke-width:669.291; stroke-opacity:1; 
stroke-linecap:round; stroke-linejoin:round;">
</g>
<g style="fill:#000000; fill-opacity:0.0; 
stroke:#000000; stroke-width:669.291; stroke-opacity:1; 
stroke-linecap:round; stroke-linejoin:round;">
<path d="M3352 6683
L3352 6683
" />
<path d="M3352 7683
L3352 7683
" />
<path d="M3352 8683
L3352 8683
" />
<path d="M3352 9683
L3352 9683
" />
<path d="M3352 10683
L3352 10683
" />
</g>
<g style="fill:#000000; fill-opacity:0.0; 
stroke:#000000; stroke-width:0; stroke-opacity:1; 
stroke-linecap:round; stroke-linejoin:round;">
</g>
<g style="fill:#000000; fill-opacity:1.0; 
stroke:#000000; stroke-width:0; stroke-opacity:1; 
stroke-linecap:round; stroke-linejoin:round;">
<polyline style="fill-rule:evenodd;"
points="10600,10659
9931,10659
9931,9872
10600,9872
10600,10659
" /> 
<polyline style="fill-rule:evenodd;"
points="10600,9084
9931,9084
9931,8297
10600,8297
10600,9084
" /> 
</g>
<g style="fill:#000000; fill-opacity:1.0; 
stroke:#000000; stroke-width:157.48; stroke-opacity:1; 
stroke-linecap:round; stroke-linejoin:round;">
</g>
<g style="fill:#000000; fill-opacity:0.0; 
stroke:#000000; stroke-width:157.48; stroke-opacity:1; 
stroke-linecap:round; stroke-linejoin:round;">
<path d="M6348 10190
L6895 10190
" />
<path d="M8307 5137
L8307 3785
" />
<path d="M7116 6328
L8307 5137
" />
<path d="M7116 9970
L7116 6328
" />
<path d="M6895 10190
L7116 9970
" />
<path d="M6564 11683
L6564 11584
" />
<path d="M6564 11584
L6289 11309
" />
<path d="M6352 13683
L6352 12998
" />
<path d="M6564 12785
L6564 11683
" />
<path d="M6352 12998
L6564 12785
" />
<path d="M2352 10683
L3352 10683
" />
<path d="M3352 10683
L3375 10659
" />
<path d="M3375 10659
L4557 10659
" />
<path d="M4557 10659
L5033 10183
" />
<path d="M6348 10190
L6698 10190
" />
<path d="M6289 11309
L6289 10183
" />
<path d="M5033 10183
L6289 10183
" />
<path d="M10265 10265
L11250 10265
" />
<path d="M10462 1801
L8322 1801
" />
<path d="M11446 2785
L10462 1801
" />
<path d="M11446 10068
L11446 2785
" />
<path d="M11250 10265
L11446 10068
" />
<path d="M8322 1801
L8307 1785
" />
<path d="M10265 10265
L8549 10265
" />
<path d="M8549 10265
L8474 10190
" />
<path d="M2352 9683
L1793 9683
" />
<path d="M7608 14694
L8592 13710
" />
<path d="M5049 14694
L7608 14694
" />
<path d="M4360 14005
L5049 14694
" />
<path d="M4360 13612
L4360 14005
" />
<path d="M3671 12923
L4360 13612
" />
<path d="M2588 12923
L3671 12923
" />
<path d="M1210 11545
L2588 12923
" />
<path d="M1210 10265
L1210 11545
" />
<path d="M1793 9683
L1210 10265
" />
<path d="M10364 10364
L10265 10265
" />
<path d="M3352 9683
L2352 9683
" />
<path d="M2352 9683
L2261 9773
" />
<path d="M8139 11683
L8139 11309
" />
<path d="M8139 11309
L8415 11033
" />
<path d="M8592 13710
L8592 13120
" />
<path d="M8592 13120
L8139 12667
" />
<path d="M8139 12667
L8139 11683
" />
<path d="M3352 9683
L3360 9675
" />
<path d="M8415 11033
L8415 10183
" />
<path d="M6348 7190
L6348 5954
" />
<path d="M5557 1785
L6318 1785
" />
<path d="M5147 2194
L5557 1785
" />
<path d="M5147 4753
L5147 2194
" />
<path d="M6348 5954
L5147 4753
" />
<path d="M6903 1785
L6318 1785
" />
<path d="M6348 6407
L6348 7190
" />
<path d="M6348 7690
L5820 7690
" />
<path d="M7312 2293
L6820 2785
" />
<path d="M7312 1112
L7312 2293
" />
<path d="M7017 816
L7312 1112
" />
<path d="M5836 816
L7017 816
" />
<path d="M4557 2096
L5836 816
" />
<path d="M4557 4950
L4557 2096
" />
<path d="M5541 5935
L4557 4950
" />
<path d="M5541 7411
L5541 5935
" />
<path d="M5820 7690
L5541 7411
" />
<path d="M6820 2785
L6318 2785
" />
<path d="M8474 7190
L9356 7190
" />
<path d="M9773 2785
L8307 2785
" />
<path d="M10265 3277
L9773 2785
" />
<path d="M10265 6281
L10265 3277
" />
<path d="M9356 7190
L10265 6281
" />
<path d="M8474 8690
L7903 8690
" />
<path d="M6826 3277
L6318 3785
" />
<path d="M9183 3277
L6826 3277
" />
<path d="M9576 3671
L9183 3277
" />
<path d="M9576 4753
L9576 3671
" />
<path d="M7706 6624
L9576 4753
" />
<path d="M7706 8494
L7706 6624
" />
<path d="M7903 8690
L7706 8494
" />
<path d="M10265 8690
L8474 8690
" />
<path d="M2352 7683
L3352 7683
" />
<path d="M3352 7683
L3375 7706
" />
<path d="M3375 7706
L3966 7706
" />
<path d="M3966 7706
L4458 8198
" />
<path d="M4458 8198
L4458 8789
" />
<path d="M4458 8789
L4852 9183
" />
<path d="M4852 9183
L6289 9183
" />
<path d="M2352 8683
L3352 8683
" />
<path d="M3352 8683
L3958 8683
" />
<path d="M3958 8683
L4064 8789
" />
<path d="M4663 9683
L6289 9683
" />
<path d="M4064 9084
L4663 9683
" />
<path d="M4064 8789
L4064 9084
" />
<path d="M5525 8183
L6289 8183
" />
<path d="M2352 5683
L3352 5683
" />
<path d="M3352 5683
L3407 5738
" />
<path d="M3407 5738
L4655 5738
" />
<path d="M4655 5738
L5147 6230
" />
<path d="M5147 6230
L5147 7805
" />
<path d="M5147 7805
L5525 8183
" />
<path d="M5435 8683
L6289 8683
" />
<path d="M4753 8001
L5435 8683
" />
<path d="M4753 7135
L4753 8001
" />
<path d="M2352 6683
L3352 6683
" />
<path d="M3352 6683
L4301 6683
" />
<path d="M4301 6683
L4753 7135
" />
</g>
<g style="fill:#FFFFFF; fill-opacity:0.0; 
stroke:#FFFFFF; stroke-width:157.48; stroke-opacity:1; 
stroke-linecap:round; stroke-linejoin:round;">
</g>
<g style="fill:#FFFFFF; fill-opacity:1.0; 
stroke:#FFFFFF; stroke-width:0; stroke-opacity:1; 
stroke-linecap:round; stroke-linejoin:round;">
<circle cx="8592.52" cy="13710.6" r="196.85" /> 
</g>
<g style="fill:#FFFFFF; fill-opacity:1.0; 
stroke:#FFFFFF; stroke-width:39.3701; stroke-opacity:1; 
stroke-linecap:round; stroke-linejoin:round;">
</g>
<g style="fill:#FFFFFF; fill-opacity:1.0; 
stroke:#FFFFFF; stroke-width:0; stroke-opacity:1; 
stroke-linecap:round; stroke-linejoin:round;">
<circle cx="6352.36" cy="13683.1" r="196.85" /> 
</g>
<g style="fill:#FFFFFF; fill-opacity:1.0; 
stroke:#FFFFFF; stroke-width:39.3701; stroke-opacity:1; 
stroke-linecap:round; stroke-linejoin:round;">
</g>
<g style="fill:#FFFFFF; fill-opacity:1.0; 
stroke:#FFFFFF; stroke-width:0; stroke-opacity:1; 
stroke-linecap:round; stroke-linejoin:round;">
<circle cx="2352.36" cy="5683.07" r="196.85" /> 
</g>
<g style="fill:#FFFFFF; fill-opacity:1.0; 
stroke:#FFFFFF; stroke-width:39.3701; stroke-opacity:1; 
stroke-linecap:round; stroke-linejoin:round;">
</g>
<g style="fill:#FFFFFF; fill-opacity:1.0; 
stroke:#FFFFFF; stroke-width:0; stroke-opacity:1; 
stroke-linecap:round; stroke-linejoin:round;">
<circle cx="2352.36" cy="6683.07" r="196.85" /> 
</g>
<g style="fill:#FFFFFF; fill-opacity:1.0; 
stroke:#FFFFFF; stroke-width:39.3701; stroke-opacity:1; 
stroke-linecap:round; stroke-linejoin:round;">
</g>
<g style="fill:#FFFFFF; fill-opacity:1.0; 
stroke:#FFFFFF; stroke-width:0; stroke-opacity:1; 
stroke-linecap:round; stroke-linejoin:round;">
<circle cx="2352.36" cy="7683.07" r="196.85" /> 
</g>
<g style="fill:#FFFFFF; fill-opacity:1.0; 
stroke:#FFFFFF; stroke-width:39.3701; stroke-opacity:1; 
stroke-linecap:round; stroke-linejoin:round;">
</g>
<g style="fill:#FFFFFF; fill-opacity:1.0; 
stroke:#FFFFFF; stroke-width:0; stroke-opacity:1; 
stroke-linecap:round; stroke-linejoin:round;">
<circle cx="2352.36" cy="8683.07" r="196.85" /> 
</g>
<g style="fill:#FFFFFF; fill-opacity:1.0; 
stroke:#FFFFFF; stroke-width:39.3701; stroke-opacity:1; 
stroke-linecap:round; stroke-linejoin:round;">
</g>
<g style="fill:#FFFFFF; fill-opacity:1.0; 
stroke:#FFFFFF; stroke-width:0; stroke-opacity:1; 
stroke-linecap:round; stroke-linejoin:round;">
<circle cx="2352.36" cy="9683.07" r="196.85" /> 
</g>
<g style="fill:#FFFFFF; fill-opacity:1.0; 
stroke:#FFFFFF; stroke-width:39.3701; stroke-opacity:1; 
stroke-linecap:round; stroke-linejoin:round;">
</g>
<g style="fill:#FFFFFF; fill-opacity:1.0; 
stroke:#FFFFFF; stroke-width:0; stroke-opacity:1; 
stroke-linecap:round; stroke-linejoin:round;">
<circle cx="2352.36" cy="10683.1" r="196.85" /> 
</g>
<g style="fill:#FFFFFF; fill-opacity:1.0; 
stroke:#FFFFFF; stroke-width:39.3701; stroke-opacity:1; 
stroke-linecap:round; stroke-linejoin:round;">
</g>
<g style="fill:#FFFFFF; fill-opacity:1.0; 
stroke:#FFFFFF; stroke-width:0; stroke-opacity:1; 
stroke-linecap:round; stroke-linejoin:round;">
<circle cx="3352.36" cy="5683.07" r="196.85" /> 
</g>
<g style="fill:#FFFFFF; fill-opacity:1.0; 
stroke:#FFFFFF; stroke-width:39.3701; stroke-opacity:1; 
stroke-linecap:round; stroke-linejoin:round;">
</g>
<g style="fill:#FFFFFF; fill-opacity:1.0; 
stroke:#FFFFFF; stroke-width:0; stroke-opacity:1; 
stroke-linecap:round; stroke-linejoin:round;">
<circle cx="3352.36" cy="6683.07" r="196.85" /> 
</g>
<g style="fill:#FFFFFF; fill-opacity:1.0; 
stroke:#FFFFFF; stroke-width:39.3701; stroke-opacity:1; 
stroke-linecap:round; stroke-linejoin:round;">
</g>
<g style="fill:#FFFFFF; fill-opacity:1.0; 
stroke:#FFFFFF; stroke-width:0; stroke-opacity:1; 
stroke-linecap:round; stroke-linejoin:round;">
<circle cx="3352.36" cy="7683.07" r="196.85" /> 
</g>
<g style="fill:#FFFFFF; fill-opacity:1.0; 
stroke:#FFFFFF; stroke-width:39.3701; stroke-opacity:1; 
stroke-linecap:round; stroke-linejoin:round;">
</g>
<g style="fill:#FFFFFF; fill-opacity:1.0; 
stroke:#FFFFFF; stroke-width:0; stroke-opacity:1; 
stroke-linecap:round; stroke-linejoin:round;">
<circle cx="3352.36" cy="8683.07" r="196.85" /> 
</g>
<g style="fill:#FFFFFF; fill-opacity:1.0; 
stroke:#FFFFFF; stroke-width:39.3701; stroke-opacity:1; 
stroke-linecap:round; stroke-linejoin:round;">
</g>
<g style="fill:#FFFFFF; fill-opacity:1.0; 
stroke:#FFFFFF; stroke-width:0; stroke-opacity:1; 
stroke-linecap:round; stroke-linejoin:round;">
<circle cx="3352.36" cy="9683.07" r="196.85" /> 
</g>
<g style="fill:#FFFFFF; fill-opacity:1.0; 
stroke:#FFFFFF; stroke-width:39.3701; stroke-opacity:1; 
stroke-linecap:round; stroke-linejoin:round;">
</g>
<g style="fill:#FFFFFF; fill-opacity:1.0; 
stroke:#FFFFFF; stroke-width:0; stroke-opacity:1; 
stroke-linecap:round; stroke-linejoin:round;">
<circle cx="3352.36" cy="10683.1" r="196.85" /> 
</g>
<g style="fill:#FFFFFF; fill-opacity:1.0; 
stroke:#FFFFFF; stroke-width:39.3701; stroke-opacity:1; 
stroke-linecap:round; stroke-linejoin:round;">
</g>
<g style="fill:#000000; fill-opacity:1.0; 
stroke:#000000; stroke-width:39.3701; stroke-opacity:1; 
stroke-linecap:round; stroke-linejoin:round;">
</g>
<g style="fill:#000000; fill-opacity:0.0; 
stroke:#000000; stroke-width:39.3701; stroke-opacity:1; 
stroke-linecap:round; stroke-linejoin:round;">
<polyline fill="none;"
points="11646,0
11648,0
11850,36
11860,39
12038,142
12045,148
12045,148
12177,305
12177,305
12182,314
12253,507
12253,511
12254,514
12263,617
12263,618
12263,620
12263,15383
12263,15386
12263,15388
12215,15658
12212,15667
12212,15667
12075,15904
12069,15912
12069,15912
11859,16088
11850,16093
11593,16187
11589,16187
11586,16188
11449,16200
11448,16200
11446,16200
816,16200
814,16200
811,16200
542,16152
532,16149
532,16149
296,16012
288,16006
288,16006
112,15796
107,15787
13,15530
13,15526
12,15523
0,15386
0,15385
0,15383
0,620
0,617
0,614
36,412
39,403
142,225
148,217
148,217
305,86
305,86
314,80
507,10
511,10
514,9
617,0
618,0
620,0
11643,0
11646,0
" /> 
<polyline fill="none;"
points="621,59
523,67
339,134
190,259
93,428
59,622
59,15382
70,15514
160,15762
330,15964
557,16095
819,16141
11445,16141
11577,16130
11825,16039
12027,15870
12158,15642
12204,15381
12204,621
12196,523
12129,339
12004,190
11835,93
11641,59
621,59
" /> 
</g> 
</svg>
